<mxfile host="Electron" agent="Mozilla/5.0 (X11; Linux x86_64) AppleWebKit/537.36 (KHTML, like Gecko) draw.io/28.2.5 Chrome/138.0.7204.251 Electron/37.6.1 Safari/537.36" version="28.2.5" pages="8">
  <diagram name="0" id="LOoXRNmWMDIWTIdAfyS6">
    <mxGraphModel dx="1370" dy="843" grid="1" gridSize="10" guides="1" tooltips="1" connect="1" arrows="1" fold="1" page="1" pageScale="1" pageWidth="850" pageHeight="1100" math="0" shadow="0">
      <root>
        <mxCell id="0" />
        <mxCell id="1" parent="0" />
        <mxCell id="dRhS13Qc3OB4-bfHSebu-1" value="&lt;span style=&quot;color: rgb(51, 51, 51); font-family: &amp;quot;Cascadia Code&amp;quot;; font-size: 28px;&quot;&gt;C&lt;/span&gt;" style="rounded=0;whiteSpace=wrap;html=1;strokeWidth=1;fillColor=#DFEAF2;" parent="1" vertex="1">
          <mxGeometry x="360" y="300" width="80" height="80" as="geometry" />
        </mxCell>
        <mxCell id="dRhS13Qc3OB4-bfHSebu-2" value="&lt;span style=&quot;color: rgb(51, 51, 51); font-family: &amp;quot;Cascadia Code&amp;quot;; font-size: 28px;&quot;&gt;D&lt;/span&gt;" style="rounded=0;whiteSpace=wrap;html=1;strokeWidth=1;fillColor=#DFEAF2;" parent="1" vertex="1">
          <mxGeometry x="440" y="300" width="80" height="80" as="geometry" />
        </mxCell>
        <mxCell id="dRhS13Qc3OB4-bfHSebu-3" value="&lt;span style=&quot;color: rgb(51, 51, 51); font-family: &amp;quot;Cascadia Code&amp;quot;; font-size: 28px;&quot;&gt;E&lt;/span&gt;" style="rounded=0;whiteSpace=wrap;html=1;strokeWidth=1;fillColor=#DFEAF2;" parent="1" vertex="1">
          <mxGeometry x="520" y="300" width="80" height="80" as="geometry" />
        </mxCell>
        <mxCell id="dRhS13Qc3OB4-bfHSebu-4" value="&lt;font style=&quot;color: rgb(51, 51, 51); font-size: 28px;&quot;&gt;B&lt;/font&gt;" style="rounded=0;whiteSpace=wrap;html=1;strokeWidth=1;fillColor=#DFEAF2;fontFamily=Cascadia Code;fontColor=#333333;" parent="1" vertex="1">
          <mxGeometry x="280" y="300" width="80" height="80" as="geometry" />
        </mxCell>
        <mxCell id="dRhS13Qc3OB4-bfHSebu-5" value="&lt;font face=&quot;Cascadia Code&quot; color=&quot;#4d4d4d&quot;&gt;&lt;span style=&quot;font-size: 18px;&quot;&gt;1&lt;/span&gt;&lt;/font&gt;" style="rounded=0;whiteSpace=wrap;html=1;strokeWidth=1;fillColor=#DFEAF2;fontSize=22;" parent="1" vertex="1">
          <mxGeometry x="280" y="280" width="80" height="20" as="geometry" />
        </mxCell>
        <mxCell id="dRhS13Qc3OB4-bfHSebu-6" value="&lt;font style=&quot;color: rgb(77, 77, 77); font-size: 18px;&quot; face=&quot;Cascadia Code&quot;&gt;2&lt;/font&gt;" style="rounded=0;whiteSpace=wrap;html=1;strokeWidth=1;fillColor=#DFEAF2;fontSize=22;" parent="1" vertex="1">
          <mxGeometry x="360" y="280" width="80" height="20" as="geometry" />
        </mxCell>
        <mxCell id="dRhS13Qc3OB4-bfHSebu-7" value="&lt;font style=&quot;color: rgb(77, 77, 77); font-size: 18px;&quot; face=&quot;Cascadia Code&quot;&gt;3&lt;/font&gt;" style="rounded=0;whiteSpace=wrap;html=1;strokeWidth=1;fillColor=#DFEAF2;fontSize=22;" parent="1" vertex="1">
          <mxGeometry x="440" y="280" width="80" height="20" as="geometry" />
        </mxCell>
        <mxCell id="dRhS13Qc3OB4-bfHSebu-8" value="&lt;font style=&quot;color: rgb(77, 77, 77); font-size: 18px;&quot; face=&quot;Cascadia Code&quot;&gt;4&lt;/font&gt;" style="rounded=0;whiteSpace=wrap;html=1;strokeWidth=1;fillColor=#DFEAF2;fontSize=22;" parent="1" vertex="1">
          <mxGeometry x="520" y="280" width="80" height="20" as="geometry" />
        </mxCell>
        <mxCell id="dRhS13Qc3OB4-bfHSebu-9" value="&lt;span style=&quot;font-size: 28px;&quot;&gt;A&lt;/span&gt;" style="rounded=0;whiteSpace=wrap;html=1;strokeWidth=1;fillColor=#DFEAF2;fontFamily=Cascadia Code;fontColor=#333333;" parent="1" vertex="1">
          <mxGeometry x="200" y="300" width="80" height="80" as="geometry" />
        </mxCell>
        <mxCell id="dRhS13Qc3OB4-bfHSebu-10" value="&lt;font style=&quot;color: rgb(77, 77, 77); font-size: 18px;&quot; face=&quot;Cascadia Code&quot;&gt;0&lt;/font&gt;" style="rounded=0;whiteSpace=wrap;html=1;strokeWidth=1;fillColor=#DFEAF2;fontSize=22;" parent="1" vertex="1">
          <mxGeometry x="200" y="280" width="80" height="20" as="geometry" />
        </mxCell>
        <mxCell id="j31clVXikUJxNYkoO4Zu-1" value="" style="rounded=0;whiteSpace=wrap;html=1;fillColor=none;strokeColor=none;" vertex="1" parent="1">
          <mxGeometry x="120" y="280" width="560" height="100" as="geometry" />
        </mxCell>
      </root>
    </mxGraphModel>
  </diagram>
  <diagram name="1" id="n3hI82rvSEYimmFMbG5H">
    <mxGraphModel dx="1370" dy="843" grid="1" gridSize="10" guides="1" tooltips="1" connect="1" arrows="1" fold="1" page="1" pageScale="1" pageWidth="850" pageHeight="1100" math="0" shadow="0">
      <root>
        <mxCell id="tB-yT8PC1_ir4ALbkz5k-0" />
        <mxCell id="tB-yT8PC1_ir4ALbkz5k-1" parent="tB-yT8PC1_ir4ALbkz5k-0" />
        <mxCell id="tB-yT8PC1_ir4ALbkz5k-2" value="&lt;span style=&quot;color: rgb(51, 51, 51); font-family: &amp;quot;Cascadia Code&amp;quot;; font-size: 28px;&quot;&gt;C&lt;/span&gt;" style="rounded=0;whiteSpace=wrap;html=1;strokeWidth=1;fillColor=#DFEAF2;" parent="tB-yT8PC1_ir4ALbkz5k-1" vertex="1">
          <mxGeometry x="360" y="300" width="80" height="80" as="geometry" />
        </mxCell>
        <mxCell id="tB-yT8PC1_ir4ALbkz5k-3" value="&lt;span style=&quot;color: rgb(51, 51, 51); font-family: &amp;quot;Cascadia Code&amp;quot;; font-size: 28px;&quot;&gt;D&lt;/span&gt;" style="rounded=0;whiteSpace=wrap;html=1;strokeWidth=1;fillColor=#DFEAF2;" parent="tB-yT8PC1_ir4ALbkz5k-1" vertex="1">
          <mxGeometry x="440" y="300" width="80" height="80" as="geometry" />
        </mxCell>
        <mxCell id="tB-yT8PC1_ir4ALbkz5k-4" value="&lt;span style=&quot;color: rgb(51, 51, 51); font-family: &amp;quot;Cascadia Code&amp;quot;; font-size: 28px;&quot;&gt;E&lt;/span&gt;" style="rounded=0;whiteSpace=wrap;html=1;strokeWidth=1;fillColor=#DFEAF2;" parent="tB-yT8PC1_ir4ALbkz5k-1" vertex="1">
          <mxGeometry x="520" y="300" width="80" height="80" as="geometry" />
        </mxCell>
        <mxCell id="tB-yT8PC1_ir4ALbkz5k-5" value="&lt;font style=&quot;color: rgb(51, 51, 51); font-size: 28px;&quot;&gt;B&lt;/font&gt;" style="rounded=0;whiteSpace=wrap;html=1;strokeWidth=1;fillColor=#DFEAF2;fontFamily=Cascadia Code;fontColor=#333333;" parent="tB-yT8PC1_ir4ALbkz5k-1" vertex="1">
          <mxGeometry x="280" y="300" width="80" height="80" as="geometry" />
        </mxCell>
        <mxCell id="tB-yT8PC1_ir4ALbkz5k-6" value="&lt;font face=&quot;Cascadia Code&quot; color=&quot;#4d4d4d&quot;&gt;&lt;span style=&quot;font-size: 18px;&quot;&gt;1&lt;/span&gt;&lt;/font&gt;" style="rounded=0;whiteSpace=wrap;html=1;strokeWidth=1;fillColor=#DFEAF2;fontSize=22;" parent="tB-yT8PC1_ir4ALbkz5k-1" vertex="1">
          <mxGeometry x="280" y="280" width="80" height="20" as="geometry" />
        </mxCell>
        <mxCell id="tB-yT8PC1_ir4ALbkz5k-7" value="&lt;font style=&quot;color: rgb(77, 77, 77); font-size: 18px;&quot; face=&quot;Cascadia Code&quot;&gt;2&lt;/font&gt;" style="rounded=0;whiteSpace=wrap;html=1;strokeWidth=1;fillColor=#DFEAF2;fontSize=22;" parent="tB-yT8PC1_ir4ALbkz5k-1" vertex="1">
          <mxGeometry x="360" y="280" width="80" height="20" as="geometry" />
        </mxCell>
        <mxCell id="tB-yT8PC1_ir4ALbkz5k-8" value="&lt;font style=&quot;color: rgb(77, 77, 77); font-size: 18px;&quot; face=&quot;Cascadia Code&quot;&gt;3&lt;/font&gt;" style="rounded=0;whiteSpace=wrap;html=1;strokeWidth=1;fillColor=#DFEAF2;fontSize=22;" parent="tB-yT8PC1_ir4ALbkz5k-1" vertex="1">
          <mxGeometry x="440" y="280" width="80" height="20" as="geometry" />
        </mxCell>
        <mxCell id="tB-yT8PC1_ir4ALbkz5k-9" value="&lt;font style=&quot;color: rgb(77, 77, 77); font-size: 18px;&quot; face=&quot;Cascadia Code&quot;&gt;4&lt;/font&gt;" style="rounded=0;whiteSpace=wrap;html=1;strokeWidth=1;fillColor=#DFEAF2;fontSize=22;" parent="tB-yT8PC1_ir4ALbkz5k-1" vertex="1">
          <mxGeometry x="520" y="280" width="80" height="20" as="geometry" />
        </mxCell>
        <mxCell id="tB-yT8PC1_ir4ALbkz5k-10" value="&lt;span style=&quot;font-size: 28px;&quot;&gt;A&lt;/span&gt;" style="rounded=0;whiteSpace=wrap;html=1;strokeWidth=1;fillColor=#DFEAF2;fontFamily=Cascadia Code;fontColor=#333333;" parent="tB-yT8PC1_ir4ALbkz5k-1" vertex="1">
          <mxGeometry x="200" y="300" width="80" height="80" as="geometry" />
        </mxCell>
        <mxCell id="tB-yT8PC1_ir4ALbkz5k-11" value="&lt;font style=&quot;color: rgb(77, 77, 77); font-size: 18px;&quot; face=&quot;Cascadia Code&quot;&gt;0&lt;/font&gt;" style="rounded=0;whiteSpace=wrap;html=1;strokeWidth=1;fillColor=#DFEAF2;fontSize=22;" parent="tB-yT8PC1_ir4ALbkz5k-1" vertex="1">
          <mxGeometry x="200" y="280" width="80" height="20" as="geometry" />
        </mxCell>
        <mxCell id="tXgcHh7ziAub1lQoOkV5-0" value="" style="endArrow=classic;html=1;rounded=0;strokeWidth=2;fontColor=#333333;strokeColor=#333333;" parent="tB-yT8PC1_ir4ALbkz5k-1" edge="1">
          <mxGeometry width="50" height="50" relative="1" as="geometry">
            <mxPoint x="680" y="339.5" as="sourcePoint" />
            <mxPoint x="620" y="339.5" as="targetPoint" />
          </mxGeometry>
        </mxCell>
        <mxCell id="tXgcHh7ziAub1lQoOkV5-1" value="" style="endArrow=classic;html=1;rounded=0;strokeWidth=2;fontColor=#333333;strokeColor=#333333;" parent="tB-yT8PC1_ir4ALbkz5k-1" edge="1">
          <mxGeometry width="50" height="50" relative="1" as="geometry">
            <mxPoint x="180" y="339.71" as="sourcePoint" />
            <mxPoint x="120" y="339.71" as="targetPoint" />
            <Array as="points">
              <mxPoint x="180" y="340.21" />
            </Array>
          </mxGeometry>
        </mxCell>
        <mxCell id="tXgcHh7ziAub1lQoOkV5-2" value="&lt;font style=&quot;font-size: 20px; color: rgb(51, 51, 51);&quot;&gt;Sale&lt;/font&gt;" style="text;html=1;align=center;verticalAlign=middle;whiteSpace=wrap;rounded=0;" parent="tB-yT8PC1_ir4ALbkz5k-1" vertex="1">
          <mxGeometry x="120" y="290" width="60" height="30" as="geometry" />
        </mxCell>
        <mxCell id="tXgcHh7ziAub1lQoOkV5-3" value="&lt;font style=&quot;font-size: 20px; color: rgb(51, 51, 51);&quot;&gt;Entra&lt;/font&gt;" style="text;html=1;align=center;verticalAlign=middle;whiteSpace=wrap;rounded=0;" parent="tB-yT8PC1_ir4ALbkz5k-1" vertex="1">
          <mxGeometry x="620" y="290" width="60" height="30" as="geometry" />
        </mxCell>
        <mxCell id="RH7q140YETZAO-D8Rk0q-0" value="" style="rounded=0;whiteSpace=wrap;html=1;fillColor=none;strokeColor=none;" vertex="1" parent="tB-yT8PC1_ir4ALbkz5k-1">
          <mxGeometry x="120" y="280" width="560" height="100" as="geometry" />
        </mxCell>
      </root>
    </mxGraphModel>
  </diagram>
  <diagram name="2" id="ZsaKoDGeN15cP3ckF-cr">
    <mxGraphModel dx="1370" dy="843" grid="1" gridSize="10" guides="1" tooltips="1" connect="1" arrows="1" fold="1" page="1" pageScale="1" pageWidth="850" pageHeight="1100" math="0" shadow="0">
      <root>
        <mxCell id="bPAswkCZMl2Q_vb0aAxp-0" />
        <mxCell id="bPAswkCZMl2Q_vb0aAxp-1" parent="bPAswkCZMl2Q_vb0aAxp-0" />
        <mxCell id="bPAswkCZMl2Q_vb0aAxp-2" value="&lt;span style=&quot;color: rgb(51, 51, 51); font-family: &amp;quot;Cascadia Code&amp;quot;; font-size: 28px;&quot;&gt;C&lt;/span&gt;" style="rounded=0;whiteSpace=wrap;html=1;strokeWidth=1;fillColor=#DFEAF2;" parent="bPAswkCZMl2Q_vb0aAxp-1" vertex="1">
          <mxGeometry x="360" y="340" width="80" height="80" as="geometry" />
        </mxCell>
        <mxCell id="bPAswkCZMl2Q_vb0aAxp-3" value="&lt;span style=&quot;color: rgb(51, 51, 51); font-family: &amp;quot;Cascadia Code&amp;quot;; font-size: 28px;&quot;&gt;D&lt;/span&gt;" style="rounded=0;whiteSpace=wrap;html=1;strokeWidth=1;fillColor=#DFEAF2;" parent="bPAswkCZMl2Q_vb0aAxp-1" vertex="1">
          <mxGeometry x="440" y="340" width="80" height="80" as="geometry" />
        </mxCell>
        <mxCell id="bPAswkCZMl2Q_vb0aAxp-4" value="&lt;span style=&quot;color: rgb(51, 51, 51); font-family: &amp;quot;Cascadia Code&amp;quot;; font-size: 28px;&quot;&gt;E&lt;/span&gt;" style="rounded=0;whiteSpace=wrap;html=1;strokeWidth=1;fillColor=#DFEAF2;" parent="bPAswkCZMl2Q_vb0aAxp-1" vertex="1">
          <mxGeometry x="520" y="340" width="80" height="80" as="geometry" />
        </mxCell>
        <mxCell id="bPAswkCZMl2Q_vb0aAxp-5" value="&lt;font style=&quot;color: rgb(51, 51, 51); font-size: 28px;&quot;&gt;B&lt;/font&gt;" style="rounded=0;whiteSpace=wrap;html=1;strokeWidth=1;fillColor=#DFEAF2;fontFamily=Cascadia Code;fontColor=#333333;" parent="bPAswkCZMl2Q_vb0aAxp-1" vertex="1">
          <mxGeometry x="280" y="340" width="80" height="80" as="geometry" />
        </mxCell>
        <mxCell id="bPAswkCZMl2Q_vb0aAxp-6" value="&lt;font face=&quot;Cascadia Code&quot; color=&quot;#4d4d4d&quot;&gt;&lt;span style=&quot;font-size: 18px;&quot;&gt;1&lt;/span&gt;&lt;/font&gt;" style="rounded=0;whiteSpace=wrap;html=1;strokeWidth=1;fillColor=#DFEAF2;fontSize=22;" parent="bPAswkCZMl2Q_vb0aAxp-1" vertex="1">
          <mxGeometry x="280" y="320" width="80" height="20" as="geometry" />
        </mxCell>
        <mxCell id="bPAswkCZMl2Q_vb0aAxp-7" value="&lt;font style=&quot;color: rgb(77, 77, 77); font-size: 18px;&quot; face=&quot;Cascadia Code&quot;&gt;2&lt;/font&gt;" style="rounded=0;whiteSpace=wrap;html=1;strokeWidth=1;fillColor=#DFEAF2;fontSize=22;" parent="bPAswkCZMl2Q_vb0aAxp-1" vertex="1">
          <mxGeometry x="360" y="320" width="80" height="20" as="geometry" />
        </mxCell>
        <mxCell id="bPAswkCZMl2Q_vb0aAxp-8" value="&lt;font style=&quot;color: rgb(77, 77, 77); font-size: 18px;&quot; face=&quot;Cascadia Code&quot;&gt;3&lt;/font&gt;" style="rounded=0;whiteSpace=wrap;html=1;strokeWidth=1;fillColor=#DFEAF2;fontSize=22;" parent="bPAswkCZMl2Q_vb0aAxp-1" vertex="1">
          <mxGeometry x="440" y="320" width="80" height="20" as="geometry" />
        </mxCell>
        <mxCell id="bPAswkCZMl2Q_vb0aAxp-9" value="&lt;font style=&quot;color: rgb(77, 77, 77); font-size: 18px;&quot; face=&quot;Cascadia Code&quot;&gt;4&lt;/font&gt;" style="rounded=0;whiteSpace=wrap;html=1;strokeWidth=1;fillColor=#DFEAF2;fontSize=22;" parent="bPAswkCZMl2Q_vb0aAxp-1" vertex="1">
          <mxGeometry x="520" y="320" width="80" height="20" as="geometry" />
        </mxCell>
        <mxCell id="bPAswkCZMl2Q_vb0aAxp-10" value="&lt;span style=&quot;font-size: 28px;&quot;&gt;A&lt;/span&gt;" style="rounded=0;whiteSpace=wrap;html=1;strokeWidth=1;fillColor=#DFEAF2;fontFamily=Cascadia Code;fontColor=#333333;" parent="bPAswkCZMl2Q_vb0aAxp-1" vertex="1">
          <mxGeometry x="200" y="340" width="80" height="80" as="geometry" />
        </mxCell>
        <mxCell id="bPAswkCZMl2Q_vb0aAxp-11" value="&lt;font style=&quot;color: rgb(77, 77, 77); font-size: 18px;&quot; face=&quot;Cascadia Code&quot;&gt;0&lt;/font&gt;" style="rounded=0;whiteSpace=wrap;html=1;strokeWidth=1;fillColor=#DFEAF2;fontSize=22;" parent="bPAswkCZMl2Q_vb0aAxp-1" vertex="1">
          <mxGeometry x="200" y="320" width="80" height="20" as="geometry" />
        </mxCell>
        <mxCell id="P5lgUOx-gLD48hs9MqLW-0" value="&lt;span style=&quot;color: rgb(51, 51, 51); font-family: &amp;quot;Cascadia Code&amp;quot;; font-size: 28px;&quot;&gt;M&lt;/span&gt;" style="rounded=0;whiteSpace=wrap;html=1;strokeWidth=1;dashed=1;" parent="bPAswkCZMl2Q_vb0aAxp-1" vertex="1">
          <mxGeometry x="360" y="160" width="80" height="80" as="geometry" />
        </mxCell>
        <mxCell id="P5lgUOx-gLD48hs9MqLW-1" value="" style="endArrow=classic;html=1;rounded=0;strokeColor=default;strokeWidth=2;dashed=1;curved=0;dashPattern=1 2;" parent="bPAswkCZMl2Q_vb0aAxp-1" edge="1">
          <mxGeometry width="50" height="50" relative="1" as="geometry">
            <mxPoint x="399.83" y="250" as="sourcePoint" />
            <mxPoint x="400" y="310" as="targetPoint" />
          </mxGeometry>
        </mxCell>
        <mxCell id="uybgKOY2xqbNWvAZurLr-0" value="" style="rounded=0;whiteSpace=wrap;html=1;fillColor=none;strokeColor=none;" vertex="1" parent="bPAswkCZMl2Q_vb0aAxp-1">
          <mxGeometry x="120" y="320" width="560" height="100" as="geometry" />
        </mxCell>
      </root>
    </mxGraphModel>
  </diagram>
  <diagram name="3" id="so2FOM7KQhljCQR6aNbv">
    <mxGraphModel dx="1370" dy="843" grid="1" gridSize="10" guides="1" tooltips="1" connect="1" arrows="1" fold="1" page="1" pageScale="1" pageWidth="850" pageHeight="1100" math="0" shadow="0">
      <root>
        <mxCell id="9-ZAVvWZUSGNOxkOKxtg-0" />
        <mxCell id="9-ZAVvWZUSGNOxkOKxtg-1" parent="9-ZAVvWZUSGNOxkOKxtg-0" />
        <mxCell id="9-ZAVvWZUSGNOxkOKxtg-2" value="&lt;span style=&quot;color: rgb(51, 51, 51); font-family: &amp;quot;Cascadia Code&amp;quot;; font-size: 28px;&quot;&gt;C&lt;/span&gt;" style="rounded=0;whiteSpace=wrap;html=1;strokeWidth=1;fillColor=#DFEAF2;" parent="9-ZAVvWZUSGNOxkOKxtg-1" vertex="1">
          <mxGeometry x="360" y="340" width="80" height="80" as="geometry" />
        </mxCell>
        <mxCell id="9-ZAVvWZUSGNOxkOKxtg-3" value="&lt;span style=&quot;color: rgb(51, 51, 51); font-family: &amp;quot;Cascadia Code&amp;quot;; font-size: 28px;&quot;&gt;D&lt;/span&gt;" style="rounded=0;whiteSpace=wrap;html=1;strokeWidth=1;fillColor=#DFEAF2;" parent="9-ZAVvWZUSGNOxkOKxtg-1" vertex="1">
          <mxGeometry x="440" y="340" width="80" height="80" as="geometry" />
        </mxCell>
        <mxCell id="9-ZAVvWZUSGNOxkOKxtg-4" value="&lt;span style=&quot;color: rgb(51, 51, 51); font-family: &amp;quot;Cascadia Code&amp;quot;; font-size: 28px;&quot;&gt;E&lt;/span&gt;" style="rounded=0;whiteSpace=wrap;html=1;strokeWidth=1;fillColor=#DFEAF2;" parent="9-ZAVvWZUSGNOxkOKxtg-1" vertex="1">
          <mxGeometry x="520" y="340" width="80" height="80" as="geometry" />
        </mxCell>
        <mxCell id="9-ZAVvWZUSGNOxkOKxtg-5" value="&lt;font style=&quot;color: rgb(51, 51, 51); font-size: 28px;&quot;&gt;B&lt;/font&gt;" style="rounded=0;whiteSpace=wrap;html=1;strokeWidth=1;fillColor=#DFEAF2;fontFamily=Cascadia Code;fontColor=#333333;" parent="9-ZAVvWZUSGNOxkOKxtg-1" vertex="1">
          <mxGeometry x="280" y="340" width="80" height="80" as="geometry" />
        </mxCell>
        <mxCell id="9-ZAVvWZUSGNOxkOKxtg-6" value="&lt;font face=&quot;Cascadia Code&quot; color=&quot;#4d4d4d&quot;&gt;&lt;span style=&quot;font-size: 18px;&quot;&gt;1&lt;/span&gt;&lt;/font&gt;" style="rounded=0;whiteSpace=wrap;html=1;strokeWidth=1;fillColor=#DFEAF2;fontSize=22;" parent="9-ZAVvWZUSGNOxkOKxtg-1" vertex="1">
          <mxGeometry x="280" y="320" width="80" height="20" as="geometry" />
        </mxCell>
        <mxCell id="9-ZAVvWZUSGNOxkOKxtg-7" value="&lt;font style=&quot;color: rgb(77, 77, 77); font-size: 18px;&quot; face=&quot;Cascadia Code&quot;&gt;2&lt;/font&gt;" style="rounded=0;whiteSpace=wrap;html=1;strokeWidth=1;fillColor=#DFEAF2;fontSize=22;" parent="9-ZAVvWZUSGNOxkOKxtg-1" vertex="1">
          <mxGeometry x="360" y="320" width="80" height="20" as="geometry" />
        </mxCell>
        <mxCell id="9-ZAVvWZUSGNOxkOKxtg-8" value="&lt;font style=&quot;color: rgb(77, 77, 77); font-size: 18px;&quot; face=&quot;Cascadia Code&quot;&gt;3&lt;/font&gt;" style="rounded=0;whiteSpace=wrap;html=1;strokeWidth=1;fillColor=#DFEAF2;fontSize=22;" parent="9-ZAVvWZUSGNOxkOKxtg-1" vertex="1">
          <mxGeometry x="440" y="320" width="80" height="20" as="geometry" />
        </mxCell>
        <mxCell id="9-ZAVvWZUSGNOxkOKxtg-9" value="&lt;font style=&quot;color: rgb(77, 77, 77); font-size: 18px;&quot; face=&quot;Cascadia Code&quot;&gt;4&lt;/font&gt;" style="rounded=0;whiteSpace=wrap;html=1;strokeWidth=1;fillColor=#DFEAF2;fontSize=22;" parent="9-ZAVvWZUSGNOxkOKxtg-1" vertex="1">
          <mxGeometry x="520" y="320" width="80" height="20" as="geometry" />
        </mxCell>
        <mxCell id="9-ZAVvWZUSGNOxkOKxtg-10" value="&lt;span style=&quot;font-size: 28px;&quot;&gt;A&lt;/span&gt;" style="rounded=0;whiteSpace=wrap;html=1;strokeWidth=1;fillColor=#DFEAF2;fontFamily=Cascadia Code;fontColor=#333333;" parent="9-ZAVvWZUSGNOxkOKxtg-1" vertex="1">
          <mxGeometry x="200" y="340" width="80" height="80" as="geometry" />
        </mxCell>
        <mxCell id="9-ZAVvWZUSGNOxkOKxtg-11" value="&lt;font style=&quot;color: rgb(77, 77, 77); font-size: 18px;&quot; face=&quot;Cascadia Code&quot;&gt;0&lt;/font&gt;" style="rounded=0;whiteSpace=wrap;html=1;strokeWidth=1;fillColor=#DFEAF2;fontSize=22;" parent="9-ZAVvWZUSGNOxkOKxtg-1" vertex="1">
          <mxGeometry x="200" y="320" width="80" height="20" as="geometry" />
        </mxCell>
        <mxCell id="9-ZAVvWZUSGNOxkOKxtg-12" value="&lt;span style=&quot;color: rgb(51, 51, 51); font-family: &amp;quot;Cascadia Code&amp;quot;; font-size: 28px;&quot;&gt;M&lt;/span&gt;" style="rounded=0;whiteSpace=wrap;html=1;strokeWidth=1;dashed=1;" parent="9-ZAVvWZUSGNOxkOKxtg-1" vertex="1">
          <mxGeometry x="360" y="160" width="80" height="80" as="geometry" />
        </mxCell>
        <mxCell id="9-ZAVvWZUSGNOxkOKxtg-13" value="" style="endArrow=classic;html=1;rounded=0;strokeColor=#333333;strokeWidth=2;dashed=1;curved=1;dashPattern=1 2;" parent="9-ZAVvWZUSGNOxkOKxtg-1" edge="1">
          <mxGeometry width="50" height="50" relative="1" as="geometry">
            <mxPoint x="460" y="200" as="sourcePoint" />
            <mxPoint x="640" y="310" as="targetPoint" />
            <Array as="points">
              <mxPoint x="620" y="200" />
            </Array>
          </mxGeometry>
        </mxCell>
        <mxCell id="sW6vMQWeGiCIYCQl_SDQ-1" value="&lt;span style=&quot;color: rgb(51, 51, 51); font-family: &amp;quot;Cascadia Code&amp;quot;; font-size: 28px;&quot;&gt;M&lt;/span&gt;" style="rounded=0;whiteSpace=wrap;html=1;strokeWidth=1;dashed=1;" parent="9-ZAVvWZUSGNOxkOKxtg-1" vertex="1">
          <mxGeometry x="600" y="340" width="80" height="80" as="geometry" />
        </mxCell>
        <mxCell id="sW6vMQWeGiCIYCQl_SDQ-2" value="&lt;font style=&quot;color: rgb(77, 77, 77); font-size: 18px;&quot; face=&quot;Cascadia Code&quot;&gt;5&lt;/font&gt;" style="rounded=0;whiteSpace=wrap;html=1;strokeWidth=1;fontSize=22;dashed=1;" parent="9-ZAVvWZUSGNOxkOKxtg-1" vertex="1">
          <mxGeometry x="600" y="320" width="80" height="20" as="geometry" />
        </mxCell>
        <mxCell id="sW6vMQWeGiCIYCQl_SDQ-3" value="&lt;span style=&quot;color: rgb(51, 51, 51); font-family: &amp;quot;Cascadia Code&amp;quot;; font-size: 28px;&quot;&gt;C&lt;/span&gt;" style="rounded=0;whiteSpace=wrap;html=1;strokeWidth=1;fillColor=#DFEAF2;" parent="9-ZAVvWZUSGNOxkOKxtg-1" vertex="1">
          <mxGeometry x="360" y="520" width="80" height="80" as="geometry" />
        </mxCell>
        <mxCell id="sW6vMQWeGiCIYCQl_SDQ-4" value="&lt;span style=&quot;color: rgb(51, 51, 51); font-family: &amp;quot;Cascadia Code&amp;quot;; font-size: 28px;&quot;&gt;D&lt;/span&gt;" style="rounded=0;whiteSpace=wrap;html=1;strokeWidth=1;fillColor=#DFEAF2;" parent="9-ZAVvWZUSGNOxkOKxtg-1" vertex="1">
          <mxGeometry x="440" y="520" width="80" height="80" as="geometry" />
        </mxCell>
        <mxCell id="sW6vMQWeGiCIYCQl_SDQ-5" value="&lt;span style=&quot;color: rgb(51, 51, 51); font-family: &amp;quot;Cascadia Code&amp;quot;; font-size: 28px;&quot;&gt;E&lt;/span&gt;" style="rounded=0;whiteSpace=wrap;html=1;strokeWidth=1;fillColor=#DFEAF2;" parent="9-ZAVvWZUSGNOxkOKxtg-1" vertex="1">
          <mxGeometry x="520" y="520" width="80" height="80" as="geometry" />
        </mxCell>
        <mxCell id="sW6vMQWeGiCIYCQl_SDQ-6" value="&lt;font style=&quot;color: rgb(51, 51, 51); font-size: 28px;&quot;&gt;B&lt;/font&gt;" style="rounded=0;whiteSpace=wrap;html=1;strokeWidth=1;fillColor=#DFEAF2;fontFamily=Cascadia Code;fontColor=#333333;" parent="9-ZAVvWZUSGNOxkOKxtg-1" vertex="1">
          <mxGeometry x="280" y="520" width="80" height="80" as="geometry" />
        </mxCell>
        <mxCell id="sW6vMQWeGiCIYCQl_SDQ-7" value="&lt;font face=&quot;Cascadia Code&quot; color=&quot;#4d4d4d&quot;&gt;&lt;span style=&quot;font-size: 18px;&quot;&gt;1&lt;/span&gt;&lt;/font&gt;" style="rounded=0;whiteSpace=wrap;html=1;strokeWidth=1;fillColor=#DFEAF2;fontSize=22;" parent="9-ZAVvWZUSGNOxkOKxtg-1" vertex="1">
          <mxGeometry x="280" y="500" width="80" height="20" as="geometry" />
        </mxCell>
        <mxCell id="sW6vMQWeGiCIYCQl_SDQ-8" value="&lt;font style=&quot;color: rgb(77, 77, 77); font-size: 18px;&quot; face=&quot;Cascadia Code&quot;&gt;2&lt;/font&gt;" style="rounded=0;whiteSpace=wrap;html=1;strokeWidth=1;fillColor=#DFEAF2;fontSize=22;" parent="9-ZAVvWZUSGNOxkOKxtg-1" vertex="1">
          <mxGeometry x="360" y="500" width="80" height="20" as="geometry" />
        </mxCell>
        <mxCell id="sW6vMQWeGiCIYCQl_SDQ-9" value="&lt;font style=&quot;color: rgb(77, 77, 77); font-size: 18px;&quot; face=&quot;Cascadia Code&quot;&gt;3&lt;/font&gt;" style="rounded=0;whiteSpace=wrap;html=1;strokeWidth=1;fillColor=#DFEAF2;fontSize=22;" parent="9-ZAVvWZUSGNOxkOKxtg-1" vertex="1">
          <mxGeometry x="440" y="500" width="80" height="20" as="geometry" />
        </mxCell>
        <mxCell id="sW6vMQWeGiCIYCQl_SDQ-10" value="&lt;font style=&quot;color: rgb(77, 77, 77); font-size: 18px;&quot; face=&quot;Cascadia Code&quot;&gt;4&lt;/font&gt;" style="rounded=0;whiteSpace=wrap;html=1;strokeWidth=1;fillColor=#DFEAF2;fontSize=22;" parent="9-ZAVvWZUSGNOxkOKxtg-1" vertex="1">
          <mxGeometry x="520" y="500" width="80" height="20" as="geometry" />
        </mxCell>
        <mxCell id="sW6vMQWeGiCIYCQl_SDQ-11" value="&lt;span style=&quot;font-size: 28px;&quot;&gt;A&lt;/span&gt;" style="rounded=0;whiteSpace=wrap;html=1;strokeWidth=1;fillColor=#DFEAF2;fontFamily=Cascadia Code;fontColor=#333333;" parent="9-ZAVvWZUSGNOxkOKxtg-1" vertex="1">
          <mxGeometry x="200" y="520" width="80" height="80" as="geometry" />
        </mxCell>
        <mxCell id="sW6vMQWeGiCIYCQl_SDQ-12" value="&lt;font style=&quot;color: rgb(77, 77, 77); font-size: 18px;&quot; face=&quot;Cascadia Code&quot;&gt;0&lt;/font&gt;" style="rounded=0;whiteSpace=wrap;html=1;strokeWidth=1;fillColor=#DFEAF2;fontSize=22;" parent="9-ZAVvWZUSGNOxkOKxtg-1" vertex="1">
          <mxGeometry x="200" y="500" width="80" height="20" as="geometry" />
        </mxCell>
        <mxCell id="sW6vMQWeGiCIYCQl_SDQ-13" value="&lt;span style=&quot;color: rgb(51, 51, 51); font-family: &amp;quot;Cascadia Code&amp;quot;; font-size: 28px;&quot;&gt;M&lt;/span&gt;" style="rounded=0;whiteSpace=wrap;html=1;strokeWidth=1;fillColor=#DFEAF2;" parent="9-ZAVvWZUSGNOxkOKxtg-1" vertex="1">
          <mxGeometry x="600" y="520" width="80" height="80" as="geometry" />
        </mxCell>
        <mxCell id="sW6vMQWeGiCIYCQl_SDQ-14" value="&lt;font style=&quot;color: rgb(77, 77, 77); font-size: 18px;&quot; face=&quot;Cascadia Code&quot;&gt;5&lt;/font&gt;" style="rounded=0;whiteSpace=wrap;html=1;strokeWidth=1;fontSize=22;fillColor=#DFEAF2;" parent="9-ZAVvWZUSGNOxkOKxtg-1" vertex="1">
          <mxGeometry x="600" y="500" width="80" height="20" as="geometry" />
        </mxCell>
        <mxCell id="sW6vMQWeGiCIYCQl_SDQ-15" value="" style="endArrow=classic;html=1;rounded=0;strokeWidth=2;strokeColor=#333333;" parent="9-ZAVvWZUSGNOxkOKxtg-1" edge="1">
          <mxGeometry width="50" height="50" relative="1" as="geometry">
            <mxPoint x="425" y="440" as="sourcePoint" />
            <mxPoint x="425" y="480" as="targetPoint" />
          </mxGeometry>
        </mxCell>
        <mxCell id="93-u8hcEKQxqj9V_9Zda-0" value="" style="rounded=0;whiteSpace=wrap;html=1;fillColor=none;strokeColor=none;" vertex="1" parent="9-ZAVvWZUSGNOxkOKxtg-1">
          <mxGeometry x="160" y="320" width="560" height="100" as="geometry" />
        </mxCell>
      </root>
    </mxGraphModel>
  </diagram>
  <diagram name="4" id="kqnc8F8DMwhc_iDenPGv">
    <mxGraphModel dx="1370" dy="843" grid="1" gridSize="10" guides="1" tooltips="1" connect="1" arrows="1" fold="1" page="1" pageScale="1" pageWidth="850" pageHeight="1100" math="0" shadow="0">
      <root>
        <mxCell id="yaQdH4EQ9nFy9nrnifL7-0" />
        <mxCell id="yaQdH4EQ9nFy9nrnifL7-1" parent="yaQdH4EQ9nFy9nrnifL7-0" />
        <mxCell id="yaQdH4EQ9nFy9nrnifL7-12" value="&lt;font face=&quot;Cascadia Code&quot; color=&quot;#333333&quot;&gt;&lt;span style=&quot;font-size: 28px;&quot;&gt;Z&lt;/span&gt;&lt;/font&gt;" style="rounded=0;whiteSpace=wrap;html=1;strokeWidth=1;dashed=1;" parent="yaQdH4EQ9nFy9nrnifL7-1" vertex="1">
          <mxGeometry x="440" y="160" width="80" height="80" as="geometry" />
        </mxCell>
        <mxCell id="yaQdH4EQ9nFy9nrnifL7-13" value="" style="endArrow=classic;html=1;rounded=0;strokeColor=#333333;strokeWidth=2;dashed=1;curved=1;dashPattern=1 2;" parent="yaQdH4EQ9nFy9nrnifL7-1" edge="1">
          <mxGeometry width="50" height="50" relative="1" as="geometry">
            <mxPoint x="530" y="200" as="sourcePoint" />
            <mxPoint x="730" y="310" as="targetPoint" />
            <Array as="points">
              <mxPoint x="660" y="200" />
            </Array>
          </mxGeometry>
        </mxCell>
        <mxCell id="yaQdH4EQ9nFy9nrnifL7-16" value="&lt;span style=&quot;color: rgb(51, 51, 51); font-family: &amp;quot;Cascadia Code&amp;quot;; font-size: 28px;&quot;&gt;C&lt;/span&gt;" style="rounded=0;whiteSpace=wrap;html=1;strokeWidth=1;fillColor=#DFEAF2;" parent="yaQdH4EQ9nFy9nrnifL7-1" vertex="1">
          <mxGeometry x="360" y="340" width="80" height="80" as="geometry" />
        </mxCell>
        <mxCell id="yaQdH4EQ9nFy9nrnifL7-17" value="&lt;span style=&quot;color: rgb(51, 51, 51); font-family: &amp;quot;Cascadia Code&amp;quot;; font-size: 28px;&quot;&gt;D&lt;/span&gt;" style="rounded=0;whiteSpace=wrap;html=1;strokeWidth=1;fillColor=#DFEAF2;" parent="yaQdH4EQ9nFy9nrnifL7-1" vertex="1">
          <mxGeometry x="440" y="340" width="80" height="80" as="geometry" />
        </mxCell>
        <mxCell id="yaQdH4EQ9nFy9nrnifL7-18" value="&lt;span style=&quot;color: rgb(51, 51, 51); font-family: &amp;quot;Cascadia Code&amp;quot;; font-size: 28px;&quot;&gt;E&lt;/span&gt;" style="rounded=0;whiteSpace=wrap;html=1;strokeWidth=1;fillColor=#DFEAF2;" parent="yaQdH4EQ9nFy9nrnifL7-1" vertex="1">
          <mxGeometry x="520" y="340" width="80" height="80" as="geometry" />
        </mxCell>
        <mxCell id="yaQdH4EQ9nFy9nrnifL7-19" value="&lt;font style=&quot;color: rgb(51, 51, 51); font-size: 28px;&quot;&gt;B&lt;/font&gt;" style="rounded=0;whiteSpace=wrap;html=1;strokeWidth=1;fillColor=#DFEAF2;fontFamily=Cascadia Code;fontColor=#333333;" parent="yaQdH4EQ9nFy9nrnifL7-1" vertex="1">
          <mxGeometry x="280" y="340" width="80" height="80" as="geometry" />
        </mxCell>
        <mxCell id="yaQdH4EQ9nFy9nrnifL7-20" value="&lt;font face=&quot;Cascadia Code&quot; color=&quot;#4d4d4d&quot;&gt;&lt;span style=&quot;font-size: 18px;&quot;&gt;1&lt;/span&gt;&lt;/font&gt;" style="rounded=0;whiteSpace=wrap;html=1;strokeWidth=1;fillColor=#DFEAF2;fontSize=22;" parent="yaQdH4EQ9nFy9nrnifL7-1" vertex="1">
          <mxGeometry x="280" y="320" width="80" height="20" as="geometry" />
        </mxCell>
        <mxCell id="yaQdH4EQ9nFy9nrnifL7-21" value="&lt;font style=&quot;color: rgb(77, 77, 77); font-size: 18px;&quot; face=&quot;Cascadia Code&quot;&gt;2&lt;/font&gt;" style="rounded=0;whiteSpace=wrap;html=1;strokeWidth=1;fillColor=#DFEAF2;fontSize=22;" parent="yaQdH4EQ9nFy9nrnifL7-1" vertex="1">
          <mxGeometry x="360" y="320" width="80" height="20" as="geometry" />
        </mxCell>
        <mxCell id="yaQdH4EQ9nFy9nrnifL7-22" value="&lt;font style=&quot;color: rgb(77, 77, 77); font-size: 18px;&quot; face=&quot;Cascadia Code&quot;&gt;3&lt;/font&gt;" style="rounded=0;whiteSpace=wrap;html=1;strokeWidth=1;fillColor=#DFEAF2;fontSize=22;" parent="yaQdH4EQ9nFy9nrnifL7-1" vertex="1">
          <mxGeometry x="440" y="320" width="80" height="20" as="geometry" />
        </mxCell>
        <mxCell id="yaQdH4EQ9nFy9nrnifL7-23" value="&lt;font style=&quot;color: rgb(77, 77, 77); font-size: 18px;&quot; face=&quot;Cascadia Code&quot;&gt;4&lt;/font&gt;" style="rounded=0;whiteSpace=wrap;html=1;strokeWidth=1;fillColor=#DFEAF2;fontSize=22;" parent="yaQdH4EQ9nFy9nrnifL7-1" vertex="1">
          <mxGeometry x="520" y="320" width="80" height="20" as="geometry" />
        </mxCell>
        <mxCell id="yaQdH4EQ9nFy9nrnifL7-24" value="&lt;span style=&quot;font-size: 28px;&quot;&gt;A&lt;/span&gt;" style="rounded=0;whiteSpace=wrap;html=1;strokeWidth=1;fillColor=#DFEAF2;fontFamily=Cascadia Code;fontColor=#333333;" parent="yaQdH4EQ9nFy9nrnifL7-1" vertex="1">
          <mxGeometry x="200" y="340" width="80" height="80" as="geometry" />
        </mxCell>
        <mxCell id="yaQdH4EQ9nFy9nrnifL7-25" value="&lt;font style=&quot;color: rgb(77, 77, 77); font-size: 18px;&quot; face=&quot;Cascadia Code&quot;&gt;0&lt;/font&gt;" style="rounded=0;whiteSpace=wrap;html=1;strokeWidth=1;fillColor=#DFEAF2;fontSize=22;" parent="yaQdH4EQ9nFy9nrnifL7-1" vertex="1">
          <mxGeometry x="200" y="320" width="80" height="20" as="geometry" />
        </mxCell>
        <mxCell id="yaQdH4EQ9nFy9nrnifL7-26" value="&lt;span style=&quot;color: rgb(51, 51, 51); font-family: &amp;quot;Cascadia Code&amp;quot;; font-size: 28px;&quot;&gt;M&lt;/span&gt;" style="rounded=0;whiteSpace=wrap;html=1;strokeWidth=1;fillColor=#DFEAF2;" parent="yaQdH4EQ9nFy9nrnifL7-1" vertex="1">
          <mxGeometry x="600" y="340" width="80" height="80" as="geometry" />
        </mxCell>
        <mxCell id="yaQdH4EQ9nFy9nrnifL7-27" value="&lt;font style=&quot;color: rgb(77, 77, 77); font-size: 18px;&quot; face=&quot;Cascadia Code&quot;&gt;5&lt;/font&gt;" style="rounded=0;whiteSpace=wrap;html=1;strokeWidth=1;fontSize=22;fillColor=#DFEAF2;" parent="yaQdH4EQ9nFy9nrnifL7-1" vertex="1">
          <mxGeometry x="600" y="320" width="80" height="20" as="geometry" />
        </mxCell>
        <mxCell id="o4kBEKpE3GxzH6XFt8ec-0" value="&lt;font face=&quot;Cascadia Code&quot; color=&quot;#333333&quot;&gt;&lt;span style=&quot;font-size: 28px;&quot;&gt;Z&lt;/span&gt;&lt;/font&gt;" style="rounded=0;whiteSpace=wrap;html=1;strokeWidth=1;dashed=1;" parent="yaQdH4EQ9nFy9nrnifL7-1" vertex="1">
          <mxGeometry x="680" y="340" width="80" height="80" as="geometry" />
        </mxCell>
        <mxCell id="o4kBEKpE3GxzH6XFt8ec-1" value="&lt;font face=&quot;Cascadia Code&quot; color=&quot;#4d4d4d&quot;&gt;&lt;span style=&quot;font-size: 18px;&quot;&gt;6&lt;/span&gt;&lt;/font&gt;" style="rounded=0;whiteSpace=wrap;html=1;strokeWidth=1;fontSize=22;dashed=1;" parent="yaQdH4EQ9nFy9nrnifL7-1" vertex="1">
          <mxGeometry x="680" y="320" width="80" height="20" as="geometry" />
        </mxCell>
      </root>
    </mxGraphModel>
  </diagram>
  <diagram name="5" id="AKSJhqzeXCz7yymlUtXG">
    <mxGraphModel dx="1370" dy="843" grid="1" gridSize="10" guides="1" tooltips="1" connect="1" arrows="1" fold="1" page="1" pageScale="1" pageWidth="850" pageHeight="1100" math="0" shadow="0">
      <root>
        <mxCell id="xc3Q10KXrQxsv9Aa3hy1-0" />
        <mxCell id="xc3Q10KXrQxsv9Aa3hy1-1" parent="xc3Q10KXrQxsv9Aa3hy1-0" />
        <mxCell id="xc3Q10KXrQxsv9Aa3hy1-2" value="&lt;span style=&quot;color: rgb(51, 51, 51); font-family: &amp;quot;Cascadia Code&amp;quot;; font-size: 28px;&quot;&gt;C&lt;/span&gt;" style="rounded=0;whiteSpace=wrap;html=1;strokeWidth=1;fillColor=#DFEAF2;" parent="xc3Q10KXrQxsv9Aa3hy1-1" vertex="1">
          <mxGeometry x="360" y="300" width="80" height="80" as="geometry" />
        </mxCell>
        <mxCell id="xc3Q10KXrQxsv9Aa3hy1-3" value="&lt;span style=&quot;color: rgb(51, 51, 51); font-family: &amp;quot;Cascadia Code&amp;quot;; font-size: 28px;&quot;&gt;D&lt;/span&gt;" style="rounded=0;whiteSpace=wrap;html=1;strokeWidth=1;fillColor=#DFEAF2;" parent="xc3Q10KXrQxsv9Aa3hy1-1" vertex="1">
          <mxGeometry x="440" y="300" width="80" height="80" as="geometry" />
        </mxCell>
        <mxCell id="xc3Q10KXrQxsv9Aa3hy1-4" value="&lt;span style=&quot;color: rgb(51, 51, 51); font-family: &amp;quot;Cascadia Code&amp;quot;; font-size: 28px;&quot;&gt;E&lt;/span&gt;" style="rounded=0;whiteSpace=wrap;html=1;strokeWidth=1;fillColor=#DFEAF2;" parent="xc3Q10KXrQxsv9Aa3hy1-1" vertex="1">
          <mxGeometry x="520" y="300" width="80" height="80" as="geometry" />
        </mxCell>
        <mxCell id="xc3Q10KXrQxsv9Aa3hy1-5" value="&lt;font style=&quot;color: rgb(51, 51, 51); font-size: 28px;&quot;&gt;B&lt;/font&gt;" style="rounded=0;whiteSpace=wrap;html=1;strokeWidth=1;fillColor=#DFEAF2;fontFamily=Cascadia Code;fontColor=#333333;" parent="xc3Q10KXrQxsv9Aa3hy1-1" vertex="1">
          <mxGeometry x="280" y="300" width="80" height="80" as="geometry" />
        </mxCell>
        <mxCell id="xc3Q10KXrQxsv9Aa3hy1-6" value="&lt;font face=&quot;Cascadia Code&quot; color=&quot;#4d4d4d&quot;&gt;&lt;span style=&quot;font-size: 18px;&quot;&gt;1&lt;/span&gt;&lt;/font&gt;" style="rounded=0;whiteSpace=wrap;html=1;strokeWidth=1;fillColor=#DFEAF2;fontSize=22;" parent="xc3Q10KXrQxsv9Aa3hy1-1" vertex="1">
          <mxGeometry x="280" y="280" width="80" height="20" as="geometry" />
        </mxCell>
        <mxCell id="xc3Q10KXrQxsv9Aa3hy1-7" value="&lt;font style=&quot;color: rgb(77, 77, 77); font-size: 18px;&quot; face=&quot;Cascadia Code&quot;&gt;2&lt;/font&gt;" style="rounded=0;whiteSpace=wrap;html=1;strokeWidth=1;fillColor=#DFEAF2;fontSize=22;" parent="xc3Q10KXrQxsv9Aa3hy1-1" vertex="1">
          <mxGeometry x="360" y="280" width="80" height="20" as="geometry" />
        </mxCell>
        <mxCell id="xc3Q10KXrQxsv9Aa3hy1-8" value="&lt;font style=&quot;color: rgb(77, 77, 77); font-size: 18px;&quot; face=&quot;Cascadia Code&quot;&gt;3&lt;/font&gt;" style="rounded=0;whiteSpace=wrap;html=1;strokeWidth=1;fillColor=#DFEAF2;fontSize=22;" parent="xc3Q10KXrQxsv9Aa3hy1-1" vertex="1">
          <mxGeometry x="440" y="280" width="80" height="20" as="geometry" />
        </mxCell>
        <mxCell id="xc3Q10KXrQxsv9Aa3hy1-9" value="&lt;font style=&quot;color: rgb(77, 77, 77); font-size: 18px;&quot; face=&quot;Cascadia Code&quot;&gt;4&lt;/font&gt;" style="rounded=0;whiteSpace=wrap;html=1;strokeWidth=1;fillColor=#DFEAF2;fontSize=22;" parent="xc3Q10KXrQxsv9Aa3hy1-1" vertex="1">
          <mxGeometry x="520" y="280" width="80" height="20" as="geometry" />
        </mxCell>
        <mxCell id="xc3Q10KXrQxsv9Aa3hy1-10" value="&lt;span style=&quot;font-size: 28px;&quot;&gt;&lt;font style=&quot;color: rgba(51, 51, 51, 0.5);&quot;&gt;A&lt;/font&gt;&lt;/span&gt;" style="rounded=0;whiteSpace=wrap;html=1;strokeWidth=1;fillColor=#DFEAF280;fontFamily=Cascadia Code;fontColor=#333333;strokeColor=#33333380;" parent="xc3Q10KXrQxsv9Aa3hy1-1" vertex="1">
          <mxGeometry x="200" y="430" width="80" height="80" as="geometry" />
        </mxCell>
        <mxCell id="WPacEAm8jevK6F3AOxVT-4" value="" style="endArrow=classic;html=1;rounded=0;strokeWidth=2;strokeColor=light-dark(#333333,#333333);" parent="xc3Q10KXrQxsv9Aa3hy1-1" edge="1">
          <mxGeometry width="50" height="50" relative="1" as="geometry">
            <mxPoint x="239.85000000000002" y="370" as="sourcePoint" />
            <mxPoint x="239.5" y="420" as="targetPoint" />
          </mxGeometry>
        </mxCell>
        <mxCell id="WPacEAm8jevK6F3AOxVT-6" value="&lt;font style=&quot;color: rgba(51, 51, 51, 0.5); font-size: 18px;&quot;&gt;0&lt;/font&gt;" style="rounded=0;whiteSpace=wrap;html=1;strokeWidth=1;fillColor=#DFEAF280;fontFamily=Cascadia Code;fontColor=#333333;strokeColor=#33333380;" parent="xc3Q10KXrQxsv9Aa3hy1-1" vertex="1">
          <mxGeometry x="200" y="280" width="80" height="20" as="geometry" />
        </mxCell>
        <mxCell id="TwjX9mnzddNmeZ08FiNS-1" value="" style="rounded=0;whiteSpace=wrap;html=1;fillColor=none;strokeColor=none;" vertex="1" parent="xc3Q10KXrQxsv9Aa3hy1-1">
          <mxGeometry x="200" y="320" width="400" height="100" as="geometry" />
        </mxCell>
      </root>
    </mxGraphModel>
  </diagram>
  <diagram name="6" id="-BgAr4BiizmdjMpWkpRt">
    <mxGraphModel dx="1370" dy="843" grid="1" gridSize="10" guides="1" tooltips="1" connect="1" arrows="1" fold="1" page="1" pageScale="1" pageWidth="850" pageHeight="1100" math="0" shadow="0">
      <root>
        <mxCell id="QSCsy5P_K9zETaX5f213-0" />
        <mxCell id="QSCsy5P_K9zETaX5f213-1" parent="QSCsy5P_K9zETaX5f213-0" />
        <mxCell id="QSCsy5P_K9zETaX5f213-2" value="&lt;span style=&quot;color: rgb(51, 51, 51); font-family: &amp;quot;Cascadia Code&amp;quot;; font-size: 28px;&quot;&gt;C&lt;/span&gt;" style="rounded=0;whiteSpace=wrap;html=1;strokeWidth=1;fillColor=#DFEAF2;" parent="QSCsy5P_K9zETaX5f213-1" vertex="1">
          <mxGeometry x="360" y="300" width="80" height="80" as="geometry" />
        </mxCell>
        <mxCell id="QSCsy5P_K9zETaX5f213-3" value="&lt;span style=&quot;color: rgb(51, 51, 51); font-family: &amp;quot;Cascadia Code&amp;quot;; font-size: 28px;&quot;&gt;D&lt;/span&gt;" style="rounded=0;whiteSpace=wrap;html=1;strokeWidth=1;fillColor=#DFEAF2;" parent="QSCsy5P_K9zETaX5f213-1" vertex="1">
          <mxGeometry x="440" y="300" width="80" height="80" as="geometry" />
        </mxCell>
        <mxCell id="QSCsy5P_K9zETaX5f213-4" value="&lt;span style=&quot;color: rgb(51, 51, 51); font-family: &amp;quot;Cascadia Code&amp;quot;; font-size: 28px;&quot;&gt;E&lt;/span&gt;" style="rounded=0;whiteSpace=wrap;html=1;strokeWidth=1;fillColor=#DFEAF2;" parent="QSCsy5P_K9zETaX5f213-1" vertex="1">
          <mxGeometry x="520" y="300" width="80" height="80" as="geometry" />
        </mxCell>
        <mxCell id="QSCsy5P_K9zETaX5f213-7" value="&lt;font style=&quot;color: rgb(77, 77, 77); font-size: 18px;&quot; face=&quot;Cascadia Code&quot;&gt;1&lt;/font&gt;" style="rounded=0;whiteSpace=wrap;html=1;strokeWidth=1;fillColor=#DFEAF2;fontSize=22;" parent="QSCsy5P_K9zETaX5f213-1" vertex="1">
          <mxGeometry x="360" y="280" width="80" height="20" as="geometry" />
        </mxCell>
        <mxCell id="QSCsy5P_K9zETaX5f213-8" value="&lt;font style=&quot;color: rgb(77, 77, 77); font-size: 18px;&quot; face=&quot;Cascadia Code&quot;&gt;2&lt;/font&gt;" style="rounded=0;whiteSpace=wrap;html=1;strokeWidth=1;fillColor=#DFEAF2;fontSize=22;" parent="QSCsy5P_K9zETaX5f213-1" vertex="1">
          <mxGeometry x="440" y="280" width="80" height="20" as="geometry" />
        </mxCell>
        <mxCell id="QSCsy5P_K9zETaX5f213-9" value="&lt;font style=&quot;color: rgb(77, 77, 77); font-size: 18px;&quot; face=&quot;Cascadia Code&quot;&gt;3&lt;/font&gt;" style="rounded=0;whiteSpace=wrap;html=1;strokeWidth=1;fillColor=#DFEAF2;fontSize=22;" parent="QSCsy5P_K9zETaX5f213-1" vertex="1">
          <mxGeometry x="520" y="280" width="80" height="20" as="geometry" />
        </mxCell>
        <mxCell id="QSCsy5P_K9zETaX5f213-10" value="&lt;span style=&quot;font-size: 28px;&quot;&gt;&lt;font style=&quot;color: rgba(51, 51, 51, 0.5);&quot;&gt;B&lt;/font&gt;&lt;/span&gt;" style="rounded=0;whiteSpace=wrap;html=1;strokeWidth=1;fillColor=#DFEAF280;fontFamily=Cascadia Code;fontColor=#333333;strokeColor=#33333380;" parent="QSCsy5P_K9zETaX5f213-1" vertex="1">
          <mxGeometry x="280" y="430" width="80" height="80" as="geometry" />
        </mxCell>
        <mxCell id="QSCsy5P_K9zETaX5f213-11" value="" style="endArrow=classic;html=1;rounded=0;strokeWidth=2;" parent="QSCsy5P_K9zETaX5f213-1" edge="1">
          <mxGeometry width="50" height="50" relative="1" as="geometry">
            <mxPoint x="319.85" y="370" as="sourcePoint" />
            <mxPoint x="319.5" y="420" as="targetPoint" />
          </mxGeometry>
        </mxCell>
        <mxCell id="QSCsy5P_K9zETaX5f213-12" value="&lt;font color=&quot;rgba(51, 51, 51, 0.5)&quot;&gt;&lt;span style=&quot;font-size: 18px;&quot;&gt;0&lt;/span&gt;&lt;/font&gt;" style="rounded=0;whiteSpace=wrap;html=1;strokeWidth=1;fillColor=#DFEAF280;fontFamily=Cascadia Code;fontColor=#333333;strokeColor=#33333380;" parent="QSCsy5P_K9zETaX5f213-1" vertex="1">
          <mxGeometry x="280" y="280" width="80" height="20" as="geometry" />
        </mxCell>
        <mxCell id="NZyhgtn6PT0n64fI-URP-0" value="" style="rounded=0;whiteSpace=wrap;html=1;fillColor=none;strokeColor=none;" vertex="1" parent="QSCsy5P_K9zETaX5f213-1">
          <mxGeometry x="200" y="360" width="400" height="100" as="geometry" />
        </mxCell>
      </root>
    </mxGraphModel>
  </diagram>
  <diagram name="7" id="heYN2HInmIWRb8BFLXnp">
    <mxGraphModel dx="1370" dy="843" grid="1" gridSize="10" guides="1" tooltips="1" connect="1" arrows="1" fold="1" page="1" pageScale="1" pageWidth="850" pageHeight="1100" math="0" shadow="0">
      <root>
        <mxCell id="YWPh11s8dzuS4I2FtG40-0" />
        <mxCell id="YWPh11s8dzuS4I2FtG40-1" parent="YWPh11s8dzuS4I2FtG40-0" />
        <mxCell id="YWPh11s8dzuS4I2FtG40-3" value="&lt;span style=&quot;color: rgb(51, 51, 51); font-family: &amp;quot;Cascadia Code&amp;quot;; font-size: 28px;&quot;&gt;D&lt;/span&gt;" style="rounded=0;whiteSpace=wrap;html=1;strokeWidth=1;fillColor=#DFEAF2;" parent="YWPh11s8dzuS4I2FtG40-1" vertex="1">
          <mxGeometry x="440" y="300" width="80" height="80" as="geometry" />
        </mxCell>
        <mxCell id="YWPh11s8dzuS4I2FtG40-4" value="&lt;span style=&quot;color: rgb(51, 51, 51); font-family: &amp;quot;Cascadia Code&amp;quot;; font-size: 28px;&quot;&gt;E&lt;/span&gt;" style="rounded=0;whiteSpace=wrap;html=1;strokeWidth=1;fillColor=#DFEAF2;" parent="YWPh11s8dzuS4I2FtG40-1" vertex="1">
          <mxGeometry x="520" y="300" width="80" height="80" as="geometry" />
        </mxCell>
        <mxCell id="YWPh11s8dzuS4I2FtG40-6" value="&lt;font style=&quot;color: rgb(77, 77, 77); font-size: 18px;&quot; face=&quot;Cascadia Code&quot;&gt;1&lt;/font&gt;" style="rounded=0;whiteSpace=wrap;html=1;strokeWidth=1;fillColor=#DFEAF2;fontSize=22;" parent="YWPh11s8dzuS4I2FtG40-1" vertex="1">
          <mxGeometry x="440" y="280" width="80" height="20" as="geometry" />
        </mxCell>
        <mxCell id="YWPh11s8dzuS4I2FtG40-7" value="&lt;font style=&quot;color: rgb(77, 77, 77); font-size: 18px;&quot; face=&quot;Cascadia Code&quot;&gt;2&lt;/font&gt;" style="rounded=0;whiteSpace=wrap;html=1;strokeWidth=1;fillColor=#DFEAF2;fontSize=22;" parent="YWPh11s8dzuS4I2FtG40-1" vertex="1">
          <mxGeometry x="520" y="280" width="80" height="20" as="geometry" />
        </mxCell>
        <mxCell id="YWPh11s8dzuS4I2FtG40-8" value="&lt;span style=&quot;font-size: 28px;&quot;&gt;&lt;font style=&quot;color: rgba(51, 51, 51, 0.5);&quot;&gt;C&lt;/font&gt;&lt;/span&gt;" style="rounded=0;whiteSpace=wrap;html=1;strokeWidth=1;fillColor=#DFEAF280;fontFamily=Cascadia Code;fontColor=#333333;strokeColor=#33333380;" parent="YWPh11s8dzuS4I2FtG40-1" vertex="1">
          <mxGeometry x="360" y="430" width="80" height="80" as="geometry" />
        </mxCell>
        <mxCell id="YWPh11s8dzuS4I2FtG40-9" value="" style="endArrow=classic;html=1;rounded=0;strokeWidth=2;" parent="YWPh11s8dzuS4I2FtG40-1" edge="1">
          <mxGeometry width="50" height="50" relative="1" as="geometry">
            <mxPoint x="399.85" y="370" as="sourcePoint" />
            <mxPoint x="399.5" y="420" as="targetPoint" />
          </mxGeometry>
        </mxCell>
        <mxCell id="YWPh11s8dzuS4I2FtG40-10" value="&lt;font color=&quot;rgba(51, 51, 51, 0.5)&quot;&gt;&lt;span style=&quot;font-size: 18px;&quot;&gt;0&lt;/span&gt;&lt;/font&gt;" style="rounded=0;whiteSpace=wrap;html=1;strokeWidth=1;fillColor=#DFEAF280;fontFamily=Cascadia Code;fontColor=#333333;strokeColor=#33333380;" parent="YWPh11s8dzuS4I2FtG40-1" vertex="1">
          <mxGeometry x="360" y="280" width="80" height="20" as="geometry" />
        </mxCell>
        <mxCell id="mXnGd09dZ2Ib8MOMJNIb-0" value="" style="rounded=0;whiteSpace=wrap;html=1;fillColor=none;strokeColor=none;" vertex="1" parent="YWPh11s8dzuS4I2FtG40-1">
          <mxGeometry x="200" y="310" width="400" height="100" as="geometry" />
        </mxCell>
      </root>
    </mxGraphModel>
  </diagram>
</mxfile>
